[img]http://img233.imageshack.us/img233/2867/posterts.jpg[/img]
[code]
The Lincoln Lawyer 2011 R5 READNFO XViD - IMAGiNE

Ripper ...........: IMAGiNE                        IMDB Rating.......:7.5/10                             
Video Codec.......: XVID                           Release Date......:23/04/11
Audio Codec.......:MP3                             Theatre Date......:01/04/11
Audio Bitrate.....:128                             Runtime.......:1h 53mn
Subtitles.........:NIL                             Language..........:ENGLISH
Resolution...... 720 x 304                         IMDb URL.......... http://www.imdb.com/title/tt1189340/


DETAILS:

Video
ID                               : 0
Format                           : MPEG-4 Visual
Format profile                   : Advanced Simple@L5
Format settings, BVOP            : 2
Format settings, QPel            : No
Format settings, GMC             : No warppoints
Format settings, Matrix          : Default (MPEG)
Muxing mode                      : Packed bitstream
Codec ID                         : XVID
Codec ID/Hint                    : XviD
Duration                         : 1h 53mn
Bit rate                         : 1 536 Kbps
Width                            : 720 pixels
Height                           : 304 pixels
Display aspect ratio             : 2.35:1
Frame rate                       : 25.000 fps
Color space                      : YUV
Chroma subsampling               : 4:2:0
Bit depth                        : 8 bits
Scan type                        : Progressive
Compression mode                 : Lossy
Bits/(Pixel*Frame)               : 0.281
Stream size                      : 1.22 GiB (92%)
Writing library                  : XviD 62

Audio
ID                               : 1
Format                           : MPEG Audio
Format version                   : Version 1
Format profile                   : Layer 3
Mode                             : Joint stereo
Mode extension                   : MS Stereo
Codec ID                         : 55
Codec ID/Hint                    : MP3
Duration                         : 1h 53mn
Bit rate mode                    : Constant
Bit rate                         : 128 Kbps
Channel(s)                       : 2 channels
Sampling rate                    : 44.1 KHz
Compression mode                 : Lossy
Delay relative to video          : 18ms
Stream size                      : 104 MiB (8%)
Alignment                        : Split accross interleaves
Interleave, duration             : 40 ms (1.00 video frame)
Interleave, preload duration     : 500 ms
Writing library                  : LAME3.98.4

SOURCES:

VIDEO: .......... Linkoln.dlja.advokata.2011.D.DVD.ELEKTRI4KA Thanx 
AUDIO: .......... Thanx Matey 

PLOT:A lawyer conducts business from the back of his Lincoln town car while representing a high-profile client in Beverly Hills.

NOTES:
IMAGiNE bringing you another release..........

The Lincoln Lawyer 2011 R5.........

Alright folks here we have a very nice R5,First we made a script to crop, resize and sharpen 

then tweaked the colors abit.....
On to the audio, the LiNE we had was missing a minute or so from the start and a few minutes from the end....

So first minute is russian source audio.....

Then for the last few minutes we hardcoded subs for what was missing put it all together, synced and muxed to our encode 

Enjoy Folks! 
[/code]
Screens:
[img]http://img222.imageshack.us/img222/2480/27768020.jpg[/img]
[img]http://img855.imageshack.us/img855/7535/11178425.jpg[/img]
[img]http://img577.imageshack.us/img577/7296/40053620.jpg[/img]
[img]http://img405.imageshack.us/img405/2936/92247466.jpg[/img]